<svg width="633" height="567" viewBox="0 0 633 567" fill="none" xmlns="http://www.w3.org/2000/svg">
<path d="M308.5 81.5C384.103 -40.2557 633 12 633 12V453.5C633 453.5 621.179 430.681 574.5 420.5C500.29 404.315 521.953 567.075 446 566.5C384.915 566.038 284.649 534.131 267.5 475.5C259.278 447.388 432 480 308.5 405C112.5 285.972 289 623.5 139.5 550.768C23.5189 494.343 173.5 413.5 38.5001 371.268C-21.9782 352.349 -3.7663 201.503 51.5001 170.5C174.5 101.5 175.322 227.316 231 170.5C267.348 133.41 281.105 125.618 308.5 81.5Z" fill="url(#paint0_linear_31_5)"/>
<defs>
<linearGradient id="paint0_linear_31_5" x1="752.5" y1="-55" x2="95.5" y2="625" gradientUnits="userSpaceOnUse">
<stop offset="0.046875" stop-color="#B03578"/>
<stop offset="0.515625" stop-color="#B03535"/>
<stop offset="1" stop-color="#121F50"/>
</linearGradient>
</defs>
</svg>
