<?xml version="1.0" standalone="no"?>
<!DOCTYPE svg PUBLIC "-//W3C//DTD SVG 20010904//EN"
 "http://www.w3.org/TR/2001/REC-SVG-20010904/DTD/svg10.dtd">
<svg version="1.0" xmlns="http://www.w3.org/2000/svg"
 width="1536.000000pt" height="1536.000000pt" viewBox="0 0 1536.000000 1536.000000"
 preserveAspectRatio="xMidYMid meet">
<metadata>
Created by potrace 1.14, written by Peter Selinger 2001-2017
</metadata>
<g transform="translate(0.000000,1536.000000) scale(0.100000,-0.100000)"
fill="#000000" stroke="none">
<path d="M41 11916 c-9 -11 -12 -1007 -12 -4236 0 -2323 3 -4225 5 -4228 3 -2
61 -4 128 -4 85 1 125 -3 130 -11 6 -9 8 -9 8 1 0 6 10 12 23 12 13 0 29 -6
36 -12 11 -10 13 -10 7 0 -10 16 35 16 53 0 9 -8 12 -9 7 -1 -9 16 152 17 172
0 10 -7 13 -8 9 -1 -10 17 211 18 232 1 12 -9 13 -9 7 0 -10 17 35 17 53 0 9
-7 11 -8 8 -1 -10 17 335 17 345 1 6 -9 8 -9 8 0 0 16 302 16 312 0 6 -9 8 -9
8 1 0 16 42 16 59 0 11 -10 13 -10 7 0 -5 8 0 12 16 12 13 0 30 -6 37 -12 9
-8 12 -9 7 -1 -9 16 152 17 172 0 10 -7 13 -8 9 -1 -10 17 211 18 232 1 12 -9
13 -9 7 1 -10 16 35 16 53 -1 9 -7 11 -8 8 -1 -10 17 335 17 345 1 6 -9 8 -9
8 1 0 6 10 12 23 12 13 0 29 -6 36 -12 11 -10 13 -10 7 -1 -10 17 35 17 53 1
9 -8 12 -9 7 -1 -9 16 152 17 172 0 10 -7 13 -8 9 -1 -10 17 211 18 232 1 12
-9 13 -9 7 0 -10 17 35 17 53 1 11 -10 12 -10 7 -1 -9 16 72 15 93 -1 11 -8
13 -8 7 1 -10 17 35 17 53 1 9 -8 12 -9 7 -1 -9 16 152 17 172 0 10 -7 13 -8
9 -1 -10 17 211 18 232 1 12 -9 13 -9 7 0 -10 17 35 17 53 1 9 -8 12 -9 7 -1
-9 16 152 17 172 0 10 -7 13 -8 9 -1 -10 17 290 19 311 2 12 -10 14 -10 8 -1
-5 10 7 13 51 12 32 -1 91 -1 132 0 72 1 74 2 57 20 -9 10 -18 28 -19 39 0 11
-4 20 -7 19 -3 -1 -7 3 -9 8 -3 6 -13 19 -23 29 -10 11 -18 24 -18 29 0 5 -9
21 -20 37 -11 15 -17 30 -13 34 3 3 1 6 -5 6 -7 0 -18 15 -26 34 -8 18 -19 37
-25 40 -6 4 -9 12 -6 17 4 5 1 9 -5 9 -6 0 -9 4 -6 9 3 5 -1 14 -9 21 -8 7
-12 16 -9 21 3 5 1 9 -4 9 -9 0 -25 37 -23 53 1 4 -4 7 -11 7 -6 0 -9 3 -5 6
3 4 -1 13 -9 21 -9 9 -12 23 -8 35 4 13 2 18 -4 14 -12 -7 -25 22 -15 36 3 6
2 8 -3 5 -6 -3 -21 22 -34 56 -13 34 -27 66 -32 71 -4 6 -8 20 -8 32 0 12 -5
24 -10 26 -6 2 -12 13 -13 26 0 12 -4 22 -7 22 -5 0 -10 22 -13 62 -1 9 -5 14
-9 12 -7 -5 -9 1 -12 39 -1 6 -3 14 -7 17 -10 9 -48 143 -43 151 3 5 1 9 -4 9
-5 0 -9 10 -8 22 1 13 -4 32 -11 43 -6 11 -12 23 -12 28 0 4 -2 20 -5 35 -4
15 -8 36 -10 47 -2 11 -8 29 -12 39 -6 15 -4 18 7 12 11 -6 10 -4 -1 6 -14 12
-17 23 -22 95 -2 18 -6 33 -10 33 -3 0 -5 8 -3 18 1 9 -2 23 -8 30 -6 8 -5 12
4 12 9 0 10 3 4 8 -5 4 -11 12 -12 17 -3 17 -15 117 -18 150 -1 17 -3 30 -4
30 -1 0 -3 28 -5 61 -2 34 -6 66 -10 73 -4 6 -2 11 5 11 8 0 9 4 0 13 -8 10
-7 17 1 25 7 7 8 12 2 12 -5 0 -11 11 -12 26 -1 18 2 23 11 18 9 -6 9 -5 0 7
-16 20 -17 317 0 338 9 12 9 13 -1 7 -14 -8 -12 19 2 43 6 10 5 12 -3 7 -18
-11 -10 26 9 42 9 8 9 11 2 7 -11 -6 -12 6 -8 57 2 34 5 63 6 63 1 0 3 18 5
40 1 22 3 40 5 40 1 0 3 23 5 50 2 28 11 91 20 140 9 50 18 108 21 130 3 22 9
44 12 50 4 5 7 19 7 30 0 11 6 25 15 32 9 8 10 12 3 13 -14 0 3 71 21 82 8 6
8 8 -1 8 -11 0 -7 24 15 80 8 22 9 28 11 51 0 11 5 18 10 15 5 -4 7 4 3 16 -3
14 -1 19 6 14 8 -5 10 -2 6 8 -3 9 -3 24 2 34 9 22 11 28 13 48 0 8 5 13 9 10
4 -2 8 7 7 22 0 15 4 30 9 34 5 3 10 19 12 34 2 16 8 30 13 32 5 2 7 10 4 19
-4 9 -2 14 3 10 5 -3 11 3 12 14 4 43 6 49 14 49 5 0 6 5 3 10 -3 6 -1 10 5
10 6 0 10 6 9 13 -2 6 4 28 13 48 9 20 19 45 22 57 4 12 11 22 15 22 4 0 8 10
8 22 1 13 7 24 12 26 5 2 7 10 4 18 -3 9 1 14 13 14 14 0 15 3 6 8 -10 7 -8
15 8 35 12 15 18 27 13 27 -4 0 1 7 11 15 14 11 16 15 5 15 -8 0 -10 3 -4 8 6
4 23 34 40 67 16 33 34 63 40 67 7 5 7 8 0 8 -5 0 -3 6 6 13 9 7 16 14 16 17
-1 20 50 109 60 106 7 -3 10 1 7 9 -3 8 4 28 15 44 12 16 21 34 21 40 0 6 5
11 10 11 6 0 10 7 10 15 0 8 3 15 8 15 4 0 13 14 20 30 8 17 18 27 24 24 6 -4
8 -3 5 2 -3 6 12 37 34 69 22 33 47 72 57 87 9 16 20 28 25 28 4 0 7 5 7 10 0
6 9 20 20 32 11 12 20 28 20 35 0 8 4 11 10 8 6 -3 10 1 10 10 0 11 5 15 14
12 10 -4 13 -1 10 8 -3 8 8 27 24 43 17 17 28 33 25 36 -4 3 -1 6 5 6 7 0 12
4 12 9 0 9 24 38 107 130 18 20 33 40 33 44 0 5 5 5 10 2 6 -3 10 0 10 9 0 8
13 25 28 38 15 13 31 32 35 42 4 11 13 16 23 12 8 -3 12 -2 9 4 -9 14 102 123
117 114 7 -4 8 -3 4 5 -10 15 13 43 28 34 6 -3 8 -3 4 2 -8 9 45 65 61 65 6 0
11 7 11 15 0 9 8 19 17 22 9 4 31 20 49 37 54 52 97 90 149 131 27 22 56 46
63 53 7 6 18 12 23 12 6 0 7 5 4 10 -3 6 -1 10 6 10 10 0 60 37 136 100 7 5
15 10 18 10 6 0 7 1 65 50 19 16 41 30 48 30 6 0 12 5 12 11 0 5 5 7 10 4 6
-3 10 -2 10 3 0 5 16 17 35 28 19 10 35 23 35 27 0 5 7 7 15 4 8 -4 17 -1 21
5 5 7 2 8 -7 4 -8 -4 -5 0 5 8 11 9 23 16 28 16 4 0 19 10 34 23 14 12 29 22
32 22 11 0 87 48 90 57 2 5 8 6 13 2 5 -3 9 0 9 6 0 6 4 9 8 6 5 -3 15 4 22
14 11 16 17 17 29 7 8 -7 12 -7 8 -1 -3 6 7 18 24 28 16 9 29 14 29 10 0 -4 9
3 19 15 11 12 21 21 23 20 2 -1 22 8 44 19 23 12 45 18 49 14 5 -4 5 -1 1 6
-6 11 5 17 27 13 4 0 7 3 7 9 0 5 6 10 14 10 8 0 22 7 30 16 9 8 16 12 16 8 0
-3 7 -1 15 6 8 6 20 8 26 4 7 -4 9 -3 6 3 -8 13 129 77 144 67 7 -4 9 -3 6 3
-7 10 12 23 42 29 8 1 18 9 22 16 7 10 9 10 9 1 0 -9 7 -7 20 5 12 9 24 17 28
18 4 0 27 9 52 20 25 10 48 18 53 16 4 -1 7 2 7 6 0 12 76 36 89 28 6 -4 9 -2
5 7 -3 8 2 14 11 15 8 1 22 3 30 4 8 1 15 6 15 11 0 5 6 7 14 4 8 -3 16 -1 18
4 2 6 10 11 18 13 21 4 52 16 73 27 10 5 22 7 27 4 6 -4 10 -1 10 6 0 6 8 9
20 6 11 -3 18 -1 15 3 -3 5 10 12 30 16 19 3 35 9 35 13 0 4 8 7 18 7 24 1 46
8 52 16 3 4 17 9 30 12 24 5 68 19 118 38 13 4 28 6 33 3 5 -4 9 -2 9 3 0 11
89 36 97 28 3 -3 12 1 19 9 8 7 25 12 39 11 13 -2 22 0 20 4 -4 6 47 21 70 21
2 0 23 6 46 14 23 8 45 12 50 9 5 -3 9 0 9 6 0 7 7 10 15 6 8 -3 15 -1 15 5 0
6 7 6 20 -1 11 -6 20 -7 19 -3 -3 21 2 24 18 12 14 -12 16 -12 8 0 -6 11 -2
13 18 9 17 -3 24 -1 20 5 -4 6 0 8 10 4 10 -3 17 -2 17 2 0 5 11 8 25 6 14 -1
25 2 25 7 0 6 7 8 15 5 8 -4 17 -3 19 2 3 4 15 7 28 6 20 -1 22 -7 23 -53 0
-32 -3 -48 -10 -45 -5 3 -5 0 2 -7 8 -9 9 -19 3 -31 -7 -11 -7 -20 0 -24 5 -3
10 -11 10 -16 0 -6 -5 -7 -11 -3 -8 5 -8 1 0 -13 7 -14 7 -23 0 -30 -8 -8 -7
-13 0 -17 15 -10 14 -29 -1 -20 -10 5 -10 4 -1 -6 8 -9 9 -19 3 -31 -7 -11 -7
-20 0 -24 5 -3 10 -11 10 -16 0 -6 -5 -7 -11 -3 -8 5 -8 1 0 -13 7 -14 7 -23
0 -30 -8 -8 -7 -13 0 -17 15 -10 14 -29 -1 -20 -10 5 -10 4 -1 -6 8 -9 9 -19
3 -31 -7 -11 -7 -20 0 -24 15 -9 12 -27 -2 -19 -10 5 -10 4 -1 -6 8 -9 9 -19
3 -31 -7 -12 -6 -20 0 -24 8 -5 8 -11 0 -20 -8 -9 -8 -15 0 -20 6 -3 8 -11 4
-16 -3 -5 -10 -7 -15 -4 -5 4 -9 2 -9 -3 0 -5 -21 -13 -47 -17 -27 -5 -52 -10
-58 -11 -10 -3 -62 -15 -80 -18 -5 -1 -16 -5 -22 -9 -8 -5 -13 -3 -13 5 0 9
-3 9 -8 2 -4 -6 -18 -14 -32 -17 -61 -13 -73 -17 -78 -22 -3 -2 -12 1 -20 8
-13 9 -14 9 -8 0 4 -7 2 -14 -3 -14 -14 -2 -30 -6 -33 -9 -5 -3 -43 -12 -60
-13 -10 -1 -18 -6 -18 -11 0 -5 -3 -7 -6 -4 -3 4 -17 0 -31 -7 -15 -8 -30 -12
-35 -9 -5 3 -14 1 -21 -4 -16 -13 -160 -63 -165 -57 -2 2 -11 -3 -19 -11 -9
-8 -22 -13 -30 -10 -8 3 -12 2 -9 -3 6 -9 -37 -25 -66 -24 -10 0 -15 -4 -12
-8 5 -8 -18 -13 -53 -12 -7 1 -10 -3 -7 -8 7 -12 -44 -31 -58 -23 -6 4 -8 2
-4 -4 3 -6 -4 -14 -16 -17 -23 -7 -75 -30 -158 -68 -25 -12 -48 -20 -52 -19
-5 1 -8 -3 -8 -9 0 -5 -4 -8 -9 -4 -5 3 -12 1 -15 -4 -6 -10 -214 -114 -218
-109 -2 2 -14 -7 -27 -19 -13 -12 -28 -20 -33 -17 -4 3 -8 1 -8 -5 0 -10 -39
-27 -53 -23 -5 1 -6 -2 -3 -7 7 -11 -22 -23 -36 -14 -7 4 -8 1 -3 -7 6 -10 4
-12 -9 -7 -10 4 -15 3 -11 -3 3 -6 -2 -13 -12 -17 -9 -4 -43 -24 -75 -45 -33
-22 -64 -36 -71 -32 -6 4 -9 3 -4 -1 9 -11 -43 -46 -56 -38 -6 3 -7 1 -4 -4 4
-6 -4 -18 -17 -27 -18 -12 -26 -12 -29 -3 -3 7 -6 6 -6 -4 -1 -17 -46 -52 -68
-52 -7 0 -10 -4 -8 -8 6 -8 -25 -23 -40 -20 -5 2 -7 -1 -3 -5 5 -4 -2 -14 -15
-23 -12 -9 -23 -13 -24 -11 -2 3 -10 -5 -18 -17 -9 -13 -22 -23 -29 -23 -8 0
-17 -7 -20 -16 -4 -9 -13 -14 -22 -10 -8 3 -12 2 -9 -3 6 -11 -55 -61 -74 -61
-7 0 -9 -4 -6 -10 3 -5 1 -10 -4 -10 -6 0 -23 -14 -38 -30 -15 -17 -33 -28
-40 -26 -7 3 -12 2 -10 -2 1 -4 -13 -22 -30 -39 -18 -18 -33 -30 -33 -27 0 3
-16 -13 -36 -35 -20 -22 -42 -38 -48 -34 -6 3 -8 3 -5 -1 10 -10 -60 -78 -72
-70 -5 3 -8 2 -7 -3 4 -15 -22 -52 -41 -58 -10 -3 -21 -15 -24 -26 -4 -13 -10
-18 -18 -13 -7 4 -10 3 -6 -3 7 -12 -28 -44 -39 -35 -4 4 -4 2 -1 -4 3 -6 -5
-21 -18 -32 -14 -12 -25 -26 -25 -32 0 -5 -7 -10 -15 -10 -8 0 -14 -4 -13 -9
2 -5 -10 -24 -27 -42 -16 -19 -42 -48 -56 -66 -15 -18 -30 -29 -34 -25 -5 4
-5 2 -2 -4 5 -9 -18 -42 -91 -129 -9 -11 -17 -23 -17 -27 0 -4 -9 -14 -20 -22
-11 -9 -15 -16 -10 -16 6 0 6 -3 -1 -8 -5 -4 -20 -24 -33 -45 -13 -20 -27 -34
-33 -31 -7 4 -8 2 -4 -4 7 -11 -17 -52 -58 -99 -11 -13 -16 -23 -12 -23 4 0
-4 -15 -18 -33 -15 -19 -26 -39 -26 -44 0 -6 -7 -16 -15 -23 -9 -7 -13 -15
-11 -18 3 -2 0 -10 -7 -18 -29 -32 -37 -44 -32 -44 4 0 -3 -13 -15 -30 -12
-16 -18 -34 -15 -40 3 -5 2 -10 -3 -10 -4 0 -21 -27 -37 -60 -16 -33 -33 -60
-37 -60 -5 0 -7 -3 -4 -8 2 -4 -9 -34 -25 -67 -16 -33 -29 -65 -29 -72 0 -7
-8 -13 -17 -13 -12 0 -14 -3 -7 -8 8 -5 5 -21 -11 -55 -13 -26 -24 -49 -24
-50 0 -1 -4 -15 -10 -30 -6 -16 -11 -31 -11 -34 0 -3 -6 -19 -14 -36 -23 -52
-29 -71 -30 -89 -1 -9 -10 -24 -21 -33 -11 -9 -14 -14 -7 -10 16 8 16 -20 0
-37 -7 -7 -14 -29 -16 -48 -1 -19 -7 -37 -13 -41 -6 -3 -10 -8 -9 -10 4 -8
-24 -129 -30 -129 -3 0 -6 -14 -7 -32 -1 -17 -8 -35 -15 -40 -10 -6 -10 -8 2
-8 9 0 11 -3 5 -8 -5 -4 -11 -18 -12 -32 -5 -50 -7 -60 -14 -60 -4 0 -7 -12
-7 -27 0 -49 -27 -165 -36 -156 -5 5 -6 2 0 -7 11 -20 14 -40 5 -40 -4 0 -7
-15 -6 -32 1 -18 -1 -37 -4 -43 -3 -5 -6 -19 -8 -30 -7 -64 -16 -174 -16 -197
0 -16 -3 -28 -6 -28 -6 0 -10 -109 -10 -335 0 -218 3 -335 11 -335 4 0 3 -13
-2 -30 -5 -16 -5 -32 -1 -35 8 -4 12 -43 14 -132 1 -18 4 -33 7 -33 3 0 5 -17
5 -37 -1 -21 1 -42 4 -48 3 -5 6 -21 7 -35 2 -14 6 -47 10 -75 4 -27 7 -62 7
-77 0 -16 4 -25 10 -21 6 4 8 -4 5 -21 -3 -15 -1 -26 6 -26 6 0 4 -5 -4 -10
-12 -7 -12 -10 -1 -10 7 0 11 -6 8 -15 -4 -8 -1 -17 5 -21 7 -4 6 -9 -3 -15
-11 -7 -11 -9 -1 -9 7 0 11 -4 7 -9 -3 -5 -1 -12 4 -15 5 -3 8 -24 7 -45 0
-22 3 -37 8 -33 5 3 7 -5 4 -16 -4 -14 -2 -20 4 -16 7 5 9 -2 4 -19 -3 -14 -1
-27 4 -29 6 -2 12 -21 14 -43 2 -22 6 -47 10 -55 16 -40 35 -114 30 -122 -3
-4 -1 -8 5 -8 6 0 8 -7 5 -15 -4 -8 -1 -15 6 -15 6 0 9 -4 5 -10 -3 -5 1 -26
10 -46 8 -20 13 -39 10 -42 -3 -3 0 -11 5 -17 6 -7 12 -26 13 -43 1 -16 5 -28
9 -25 5 2 9 -2 9 -9 5 -45 7 -56 18 -76 7 -12 9 -27 6 -32 -3 -6 -1 -10 4 -10
6 0 11 -9 11 -20 0 -11 5 -20 11 -20 8 0 7 -6 -2 -17 -10 -11 -10 -14 -1 -9
11 6 17 -11 13 -37 0 -4 4 -7 10 -7 5 0 7 -4 4 -10 -7 -12 -25 -11 327 -11
199 -1 266 -4 262 -12 -4 -8 -2 -7 7 0 18 18 163 18 153 1 -6 -10 -4 -10 7 -1
17 17 79 17 79 1 0 -10 2 -10 8 -1 10 16 1995 16 1985 -1 -4 -6 1 -5 9 2 11 8
39 13 75 12 32 -1 65 0 73 4 13 5 15 267 13 2281 -1 1371 2 2273 8 2269 5 -3
9 -1 9 3 0 5 12 10 27 11 15 1 32 7 37 12 14 14 38 12 31 -2 -4 -7 0 -5 8 5
10 11 31 19 60 20 25 1 43 5 41 9 -5 8 36 22 43 14 4 -3 12 -1 18 4 7 6 27 12
44 13 17 1 31 5 31 9 0 4 9 5 20 3 11 -2 20 0 20 4 0 5 11 7 25 6 14 -2 28 1
31 6 3 6 12 5 22 -3 12 -10 14 -10 8 0 -4 6 -2 12 3 12 6 0 12 -6 13 -12 0 -7
2 -20 3 -28 1 -8 -2 -23 -7 -32 -5 -10 -4 -19 2 -23 5 -3 10 -11 10 -16 0 -6
-5 -7 -11 -3 -8 5 -8 1 0 -13 7 -14 7 -23 0 -30 -8 -8 -7 -13 0 -17 15 -10 14
-29 -1 -20 -10 5 -10 4 -1 -6 8 -9 9 -19 3 -31 -7 -11 -7 -20 0 -24 5 -3 10
-11 10 -16 0 -6 -5 -7 -11 -3 -8 5 -8 1 0 -13 7 -14 7 -23 0 -30 -8 -8 -7 -13
0 -17 15 -10 14 -29 -1 -20 -10 5 -10 4 -1 -6 8 -9 9 -19 3 -31 -7 -11 -7 -20
0 -24 5 -3 10 -11 10 -16 0 -6 -5 -7 -11 -3 -8 5 -8 1 0 -13 7 -14 7 -23 0
-30 -8 -8 -7 -13 0 -17 15 -10 14 -29 -1 -20 -10 5 -10 4 -1 -6 8 -9 9 -19 3
-31 -7 -11 -7 -20 0 -24 5 -3 10 -11 10 -16 0 -6 -5 -7 -11 -3 -8 5 -8 1 0
-13 7 -14 7 -23 0 -30 -8 -8 -7 -13 0 -17 15 -10 14 -29 -1 -20 -10 5 -10 4
-1 -6 8 -9 9 -19 3 -31 -7 -11 -7 -20 0 -24 5 -3 10 -11 10 -16 0 -6 -5 -7
-11 -3 -8 5 -8 1 0 -13 7 -14 7 -23 0 -30 -8 -8 -7 -13 0 -17 15 -10 14 -29
-1 -20 -10 5 -10 4 -1 -6 8 -9 9 -19 3 -31 -7 -11 -7 -20 0 -24 5 -3 10 -11
10 -16 0 -6 -5 -7 -11 -3 -8 5 -8 1 0 -13 7 -14 7 -23 0 -30 -8 -8 -7 -13 0
-17 15 -10 14 -29 -1 -20 -10 5 -10 4 -1 -6 8 -9 9 -19 3 -31 -7 -11 -7 -20 0
-24 5 -3 10 -11 10 -16 0 -6 -4 -7 -10 -4 -6 4 -7 -2 -2 -17 9 -29 9 -129 -1
-145 -4 -6 -3 -14 3 -18 5 -3 10 -11 10 -16 0 -6 -4 -8 -8 -5 -7 4 -8 -26 -2
-44 6 -17 4 -147 -3 -157 -4 -6 -3 -14 3 -18 5 -3 10 -11 10 -16 0 -6 -4 -8
-8 -5 -7 4 -8 -26 -2 -44 6 -17 4 -147 -3 -157 -4 -6 -3 -14 3 -18 5 -3 10
-11 10 -16 0 -6 -4 -8 -8 -5 -7 4 -8 -26 -2 -44 6 -17 4 -147 -3 -157 -4 -6
-3 -14 3 -18 5 -3 10 -11 10 -16 0 -6 -4 -8 -8 -5 -7 4 -8 -26 -2 -44 6 -17 4
-147 -3 -157 -4 -6 -3 -14 3 -18 5 -3 10 -11 10 -16 0 -6 -4 -8 -8 -5 -7 4 -8
-27 -2 -44 6 -16 4 -107 -3 -117 -4 -6 -3 -14 3 -18 14 -9 13 -28 -2 -19 -10
5 -10 4 -1 -6 8 -9 9 -19 3 -31 -7 -11 -7 -20 0 -24 5 -3 10 -11 10 -16 0 -6
-5 -7 -11 -3 -8 5 -8 1 0 -13 7 -14 7 -23 0 -30 -8 -8 -7 -13 0 -17 15 -10 14
-29 -1 -20 -10 5 -10 4 -1 -6 8 -9 9 -19 3 -31 -7 -11 -7 -20 0 -24 5 -3 10
-11 10 -16 0 -6 -5 -7 -11 -3 -8 5 -8 1 0 -13 7 -14 7 -23 0 -30 -8 -8 -7 -13
0 -17 15 -10 14 -29 -1 -20 -10 5 -10 4 -1 -6 8 -9 9 -19 3 -31 -7 -11 -7 -20
0 -24 5 -3 10 -11 10 -16 0 -6 -5 -7 -11 -3 -8 5 -8 1 0 -13 7 -14 7 -23 0
-30 -8 -8 -7 -13 0 -17 15 -10 14 -29 -1 -20 -10 5 -10 4 -1 -6 8 -9 9 -19 3
-31 -7 -11 -7 -20 0 -24 5 -3 10 -11 10 -16 0 -6 -4 -8 -8 -5 -10 6 -9 -25 1
-41 5 -7 3 -21 -3 -32 -7 -13 -7 -22 0 -26 5 -3 10 -11 10 -16 0 -6 -4 -8 -8
-5 -7 4 -8 -26 -2 -44 6 -17 4 -147 -3 -157 -4 -6 -3 -14 3 -18 5 -3 10 -11
10 -16 0 -6 -4 -8 -8 -5 -7 4 -8 -26 -2 -44 6 -17 4 -147 -3 -157 -4 -6 -3
-14 3 -18 5 -3 10 -11 10 -16 0 -6 -4 -8 -8 -5 -10 6 -9 -25 2 -42 4 -7 2 -12
-6 -12 -8 0 -9 -3 -3 -8 11 -7 15 -103 5 -97 -6 4 -5 -30 0 -45 6 -17 4 -147
-3 -157 -4 -6 -3 -14 3 -18 5 -3 10 -11 10 -16 0 -6 -4 -8 -8 -5 -7 4 -8 -26
-2 -44 6 -17 4 -147 -3 -157 -4 -6 -3 -14 3 -18 5 -3 10 -11 10 -16 0 -6 -4
-8 -8 -5 -7 4 -8 -33 -2 -41 7 -8 5 -30 -2 -40 -5 -6 -5 -14 2 -18 14 -9 13
-28 -2 -19 -10 5 -10 4 -1 -6 8 -9 9 -19 3 -31 -7 -11 -7 -20 0 -24 5 -3 10
-11 10 -16 0 -6 -5 -7 -11 -3 -8 5 -8 1 0 -13 7 -14 7 -23 0 -30 -8 -8 -7 -13
0 -17 15 -10 14 -29 -1 -20 -10 5 -10 4 -1 -6 8 -9 9 -19 3 -31 -7 -11 -7 -20
0 -24 5 -3 10 -11 10 -16 0 -6 -4 -8 -9 -5 -4 3 -6 -7 -4 -22 2 -15 5 -36 6
-46 2 -18 9 -20 60 -17 37 2 64 -2 74 -11 12 -9 15 -10 9 0 -10 16 35 16 53 0
9 -8 11 -9 8 -2 -10 17 335 17 345 1 6 -9 8 -9 8 0 0 16 302 16 312 0 6 -9 8
-9 8 1 0 6 10 12 23 12 13 0 29 -6 36 -12 11 -10 13 -10 7 0 -10 16 35 16 53
0 9 -8 12 -9 7 -1 -9 16 152 17 172 0 11 -8 14 -9 9 0 -6 9 22 11 111 10 l119
-2 -4 48 c-3 37 -1 47 9 41 10 -6 10 -4 2 7 -14 19 -17 76 -4 84 5 3 10 12 10
18 0 7 -4 6 -10 -3 -7 -11 -9 -8 -8 15 1 17 7 33 13 37 6 5 6 8 -2 8 -7 0 -13
8 -13 18 0 10 6 24 13 31 10 11 10 13 0 7 -8 -5 -13 -1 -13 9 0 10 5 13 12 9
8 -5 8 -3 2 7 -13 20 -12 142 0 151 7 5 7 8 -1 8 -17 0 -17 32 0 49 7 9 8 11
0 7 -14 -8 -13 86 2 96 6 5 5 8 -2 8 -15 0 -17 36 -3 45 6 4 7 12 3 18 -12 20
-12 107 1 107 8 0 8 2 0 8 -15 9 -15 64 -1 55 6 -4 7 -1 1 8 -13 20 -12 142 0
151 7 5 7 8 -1 8 -7 0 -13 8 -13 18 0 10 6 24 13 31 10 11 10 13 -1 7 -7 -5
-12 -1 -12 9 0 10 5 13 12 9 8 -5 8 -3 2 7 -13 20 -13 169 0 169 7 0 7 3 0 8
-14 9 -13 124 1 134 6 5 6 8 -2 8 -17 0 -17 32 0 49 7 9 8 11 0 7 -14 -8 -13
86 2 96 6 5 5 8 -2 8 -15 0 -17 36 -3 45 6 4 7 12 3 18 -12 20 -12 107 1 107
8 0 8 2 0 8 -15 9 -15 64 -1 55 6 -4 7 -1 1 8 -13 20 -12 142 0 151 7 5 7 8
-1 8 -7 0 -13 8 -13 18 0 10 6 24 13 31 10 11 10 13 0 7 -8 -5 -13 -1 -13 9 0
10 5 13 12 9 8 -5 8 -3 2 7 -13 20 -13 169 0 169 8 0 8 3 0 8 -13 9 -13 145 1
154 6 5 6 8 -2 8 -6 0 -11 13 -11 30 1 17 5 27 11 23 6 -4 7 -1 1 8 -13 20
-12 142 0 151 7 5 7 8 -1 8 -17 0 -17 32 0 49 10 11 10 13 0 7 -8 -5 -13 -1
-13 9 0 10 5 13 12 9 8 -5 8 -3 2 7 -13 20 -13 169 0 169 8 0 8 3 0 8 -13 9
-13 145 1 154 6 5 6 8 -2 8 -6 0 -11 13 -11 30 1 17 5 27 11 23 6 -4 7 -1 1 8
-13 20 -12 142 0 151 7 5 7 8 -1 8 -17 0 -17 32 0 49 10 11 10 13 0 7 -8 -5
-13 -1 -13 9 0 10 5 13 12 9 8 -5 8 -3 2 7 -13 20 -13 169 0 169 8 0 8 3 0 8
-13 9 -13 145 1 154 6 5 6 8 -2 8 -6 0 -11 13 -11 30 1 17 5 27 11 23 6 -4 7
-1 1 8 -13 20 -12 142 0 151 7 5 7 8 -1 8 -17 0 -17 32 0 49 10 11 10 13 0 7
-8 -5 -13 -1 -13 9 0 10 5 13 12 9 8 -5 8 -3 2 7 -13 20 -13 169 0 169 8 0 8
3 0 8 -13 9 -13 145 1 154 6 5 6 8 -2 8 -6 0 -11 13 -11 30 1 17 5 27 11 23 6
-4 7 -1 1 8 -13 20 -12 142 0 151 7 5 7 8 -1 8 -17 0 -17 32 -1 49 10 11 10
13 1 7 -8 -5 -13 -1 -13 9 0 10 5 13 12 9 8 -5 8 -3 2 7 -11 17 -13 169 -2
169 4 0 8 5 8 11 0 5 -4 7 -10 4 -12 -7 -13 15 -2 32 8 13 101 22 259 26 40 1
73 4 73 7 0 3 24 6 53 7 28 1 66 4 82 5 17 2 36 -1 43 -6 6 -5 12 -5 12 0 0 9
95 16 267 18 57 0 103 4 103 7 0 10 54 5 62 -6 5 -6 8 -6 8 2 0 8 20 12 64 12
36 -1 75 2 87 6 15 5 19 4 14 -5 -6 -9 -3 -9 12 -2 12 7 24 7 37 0 13 -7 17
-7 12 0 -4 7 19 10 71 8 43 -1 86 1 95 6 10 5 19 4 23 -2 5 -8 11 -8 20 0 10
8 15 8 20 0 5 -8 11 -7 23 2 13 11 14 11 7 -1 -6 -10 -4 -12 6 -6 20 13 69 13
69 1 0 -7 3 -8 8 -1 4 6 64 10 147 10 77 0 146 4 153 9 7 5 12 5 12 0 0 -5 45
-7 99 -4 55 3 116 2 135 -1 20 -3 36 -3 36 0 0 3 127 5 282 4 217 -2 283 -5
289 -15 7 -10 9 -10 9 0 0 8 21 12 70 12 49 0 70 -4 70 -12 0 -9 3 -9 8 -3 9
14 153 15 145 2 -3 -6 -1 -7 6 -3 23 14 61 17 61 4 0 -8 3 -9 8 -3 8 12 22 13
39 2 6 -4 14 -3 18 3 4 6 12 7 18 3 15 -9 47 -11 47 -3 0 8 37 6 46 -3 4 -4
13 -2 20 4 7 6 15 6 18 1 3 -5 24 -7 47 -5 33 4 40 2 33 -8 -6 -11 -5 -12 7
-3 8 6 39 10 69 9 30 -2 111 -4 180 -6 69 -1 130 -7 137 -11 6 -5 14 -5 18 2
3 6 11 7 17 4 5 -4 41 -7 79 -8 55 -1 69 2 70 14 1 8 2 24 3 35 0 11 -2 28 -7
38 -5 10 -4 17 3 17 6 0 8 5 4 11 -7 12 -9 261 -2 276 2 4 3 19 1 33 -6 43 -4
170 2 180 3 6 1 10 -5 10 -7 0 -8 6 -1 19 6 10 8 20 6 23 -8 7 -13 68 -6 68 5
0 6 55 1 70 -1 3 -1 23 0 45 0 22 1 51 1 65 -1 60 0 216 0 225 0 6 -1 25 -4
43 -2 17 -2 32 2 32 3 0 6 11 6 25 0 14 -4 25 -8 25 -4 0 -3 8 2 19 6 10 8 20
6 23 -8 7 -13 68 -6 68 7 0 6 58 -1 66 -3 3 -2 21 2 40 6 27 5 36 -9 43 -9 6
-22 6 -28 3 -18 -11 -104 -2 -96 11 4 6 1 7 -8 1 -19 -12 -122 -11 -131 1 -5
6 -8 5 -8 -3 0 -7 -4 -10 -10 -7 -9 5 -294 12 -677 15 -101 1 -143 5 -143 13
0 9 -2 9 -8 1 -9 -15 -75 -16 -66 -2 5 7 2 8 -7 2 -21 -13 -260 -13 -252 0 5
7 2 7 -8 0 -18 -14 -52 -14 -61 0 -5 7 -8 8 -8 0 0 -14 -153 -15 -162 0 -6 8
-8 8 -8 0 0 -7 -31 -11 -85 -12 -62 0 -83 3 -78 11 5 9 3 9 -8 0 -16 -13 -476
-23 -495 -11 -6 4 -14 4 -18 0 -4 -4 -22 -8 -39 -10 -18 -1 -36 -3 -42 -3 -5
-1 -22 1 -37 4 -15 3 -30 2 -33 -3 -3 -5 -19 -5 -35 0 -17 5 -32 5 -35 0 -3
-5 -16 -5 -30 0 -14 5 -25 6 -25 2 0 -5 -50 -9 -110 -9 -61 0 -113 -3 -117 -6
-3 -4 -12 -2 -20 4 -8 8 -13 8 -13 1 0 -11 -25 -10 -36 1 -4 4 -14 2 -21 -5
-11 -9 -17 -9 -24 3 -5 8 -9 9 -9 2 0 -7 -20 -11 -57 -11 -32 0 -62 -1 -68 -2
-22 -5 -36 1 -30 13 4 6 1 5 -7 -3 -16 -19 -88 -24 -88 -7 0 9 -3 8 -8 -1 -6
-8 -39 -14 -100 -16 -51 -1 -95 -5 -98 -9 -4 -3 -15 -2 -25 4 -11 5 -19 6 -19
1 0 -10 -62 -8 -80 3 -9 5 -11 4 -6 -3 5 -9 -10 -12 -51 -13 -133 -4 -163 -6
-169 -12 -4 -4 -13 -2 -21 4 -7 6 -13 7 -13 2 0 -5 -21 -10 -46 -10 -40 -1
-44 0 -32 15 8 10 9 13 1 9 -8 -5 -11 2 -11 22 1 19 5 28 12 24 6 -4 5 0 -2 9
-10 13 -10 17 0 21 10 4 10 6 1 6 -7 1 -13 9 -13 19 0 10 6 24 13 31 10 11 10
13 0 7 -8 -5 -13 -1 -13 9 0 10 5 13 12 9 8 -5 8 -3 2 7 -13 20 -13 169 0 169
6 0 4 5 -4 10 -12 8 -13 13 -3 29 6 10 9 22 5 26 -11 11 -9 89 2 97 7 5 7 8
-1 8 -15 0 -18 30 -3 31 38 3 68 2 78 -5 7 -4 12 -3 12 1 0 12 93 10 102 -2 5
-7 8 -7 8 0 0 11 101 12 119 1 6 -4 11 -4 11 1 0 12 334 10 342 -2 5 -7 8 -7
8 0 0 11 101 12 119 1 6 -4 11 -4 11 1 0 12 334 10 342 -2 5 -7 8 -7 8 0 0 11
101 12 119 1 6 -4 11 -4 11 1 0 12 334 10 342 -2 5 -7 8 -7 8 0 0 11 101 12
119 1 6 -4 11 -4 11 1 0 12 334 10 342 -2 5 -7 8 -7 8 0 0 11 101 12 119 1 6
-4 11 -4 11 1 0 12 334 10 342 -2 5 -7 8 -7 8 0 0 11 101 12 119 1 6 -4 11 -4
11 1 0 12 334 10 342 -2 5 -7 8 -7 8 0 0 11 101 12 119 1 6 -4 11 -4 11 1 0
12 334 10 342 -2 5 -7 8 -7 8 0 0 11 101 12 119 1 6 -4 11 -4 11 1 0 12 334
10 342 -2 5 -7 8 -7 8 0 0 11 101 12 119 1 6 -4 11 -4 11 1 0 12 334 10 342
-2 5 -7 8 -7 8 0 0 11 101 12 119 1 6 -4 11 -4 11 1 0 12 334 10 342 -2 5 -7
8 -7 8 0 0 11 101 12 119 1 6 -4 11 -4 11 1 0 12 294 10 302 -2 5 -7 8 -6 8 1
0 6 18 9 45 7 42 -3 45 -2 46 22 1 40 1 94 -1 103 -1 4 -1 41 0 82 2 91 2 142
0 155 -1 6 -1 44 0 85 2 91 2 142 0 155 -1 6 -1 44 0 85 2 91 2 142 0 155 -1
6 -1 44 0 85 2 91 2 142 0 155 -1 6 -1 44 0 85 2 88 2 141 0 155 0 6 -2 51 -3
100 l-2 90 -52 0 c-28 0 -55 3 -59 7 -3 4 -14 4 -23 0 -20 -10 -927 -9 -937 0
-3 4 -14 4 -23 0 -20 -10 -287 -9 -297 0 -4 4 -14 4 -23 0 -14 -7 -927 -9
-941 -2 -3 1 -9 1 -15 0 -24 -7 -2217 -4 -2222 3 -2 4 -12 3 -21 -1 -23 -11
-943 -9 -961 2 -10 6 -12 5 -7 -2 5 -8 -1 -12 -14 -12 -13 0 -19 4 -14 12 5 7
3 8 -7 2 -8 -5 -41 -10 -73 -11 -33 -1 -65 -4 -72 -7 -7 -3 -16 -1 -19 5 -4 5
-12 6 -18 2 -16 -10 -29 -12 -122 -17 -44 -3 -80 -5 -80 -6 0 0 -29 -3 -65 -6
-36 -3 -87 -7 -115 -10 -27 -3 -75 -6 -107 -7 -31 -1 -54 -5 -52 -9 3 -4 -4
-7 -13 -7 -10 0 -33 -2 -51 -5 -24 -4 -31 -2 -26 7 4 7 -1 5 -12 -4 -12 -9
-38 -15 -71 -15 -28 1 -49 -2 -46 -6 4 -7 -10 -10 -79 -12 -16 0 -28 -3 -28
-7 0 -10 -35 -6 -42 5 -5 7 -8 5 -8 -5 0 -12 -11 -15 -49 -15 -27 1 -47 -2
-44 -6 2 -5 0 -8 -6 -8 -5 0 -17 -3 -27 -7 -13 -5 -15 -3 -9 8 7 11 6 12 -6 2
-17 -13 -68 -25 -116 -27 -17 -1 -29 -4 -26 -8 2 -5 -7 -9 -21 -9 -14 -1 -29
-2 -33 -4 -21 -5 -90 -19 -103 -20 -9 0 -20 -4 -26 -7 -6 -4 -22 -9 -37 -12
-15 -2 -31 -7 -36 -10 -5 -4 -13 -1 -17 5 -5 8 -9 7 -14 -2 -8 -12 -27 -17
-82 -22 -14 -1 -24 -6 -21 -11 4 -5 -4 -7 -15 -4 -13 4 -22 1 -22 -5 0 -6 -3
-7 -6 -4 -4 3 -15 2 -26 -4 -10 -5 -31 -12 -46 -14 -15 -2 -46 -10 -69 -19
-39 -14 -41 -13 -36 2 4 11 0 9 -13 -6 -13 -15 -32 -23 -60 -25 -23 -1 -40 -5
-37 -9 4 -7 -2 -9 -39 -12 -7 -1 -15 -4 -18 -8 -3 -3 -19 -8 -35 -10 -17 -2
-33 -6 -36 -11 -3 -4 -19 -9 -36 -10 -17 -1 -29 -5 -27 -8 5 -9 -17 -16 -43
-14 -12 1 -20 -2 -17 -7 3 -4 -3 -8 -13 -8 -10 0 -29 -6 -44 -13 -14 -8 -33
-13 -42 -11 -9 1 -15 -2 -11 -7 3 -5 -4 -9 -15 -9 -11 0 -23 -5 -26 -10 -4 -6
-10 -8 -15 -5 -5 3 -11 1 -15 -5 -9 -15 -38 -13 -29 3 4 6 -3 2 -15 -10 -12
-13 -30 -23 -39 -23 -10 0 -23 -5 -30 -12 -7 -7 -12 -9 -12 -6 0 4 -12 1 -27
-7 -15 -8 -30 -12 -35 -9 -4 3 -8 0 -8 -7 0 -7 -8 -9 -21 -6 -12 3 -18 3 -15
0 4 -4 -24 -19 -61 -35 -38 -16 -77 -32 -88 -37 -21 -10 -52 -20 -60 -21 -3 0
-21 -9 -41 -20 -19 -11 -40 -17 -46 -14 -7 4 -8 2 -4 -4 5 -8 0 -12 -13 -12
-11 0 -23 -5 -26 -10 -4 -6 -11 -8 -16 -5 -5 4 -9 1 -9 -4 0 -6 -3 -10 -8 -9
-4 1 -58 -23 -121 -55 -62 -31 -118 -54 -124 -50 -6 4 -7 1 -2 -7 6 -10 3 -12
-13 -8 -13 4 -20 1 -19 -5 1 -6 -4 -11 -11 -12 -7 0 -17 -7 -22 -15 -5 -8 -10
-12 -10 -7 0 4 -11 0 -25 -9 -14 -9 -31 -14 -39 -11 -11 4 -13 1 -9 -10 5 -13
2 -15 -15 -11 -12 4 -20 3 -17 -1 4 -8 -33 -29 -47 -27 -3 0 -18 -10 -31 -23
-14 -12 -30 -21 -35 -17 -5 3 -19 -6 -32 -19 -13 -13 -26 -22 -30 -20 -4 3
-13 -2 -20 -10 -7 -8 -17 -15 -22 -15 -6 0 -22 -9 -38 -20 -15 -11 -30 -17
-34 -13 -3 3 -6 1 -6 -5 0 -14 -60 -43 -73 -35 -6 3 -7 1 -3 -5 8 -13 -28 -35
-39 -24 -5 4 -5 1 -1 -5 4 -7 3 -13 -2 -13 -5 0 -26 -11 -46 -25 -20 -13 -36
-22 -36 -19 0 2 -10 -4 -22 -15 -11 -11 -25 -18 -30 -15 -4 3 -8 0 -8 -6 0 -6
-8 -14 -17 -17 -10 -4 -27 -15 -38 -25 -10 -10 -25 -16 -33 -13 -7 3 -10 0 -7
-6 4 -6 -2 -13 -14 -16 -12 -3 -21 -9 -21 -14 0 -5 -6 -9 -13 -9 -8 0 -24 -11
-37 -25 -13 -14 -29 -25 -37 -25 -7 0 -13 -4 -13 -10 0 -5 -5 -10 -11 -10 -6
0 -17 -6 -24 -12 -33 -30 -45 -38 -55 -38 -5 0 -10 -3 -10 -8 0 -4 -18 -18
-40 -32 -22 -14 -40 -28 -40 -32 0 -5 -5 -8 -11 -8 -6 0 -17 -7 -26 -15 -8 -8
-19 -12 -25 -9 -6 4 -8 2 -5 -3 7 -11 -50 -60 -65 -56 -4 2 -7 -2 -5 -9 1 -7
-3 -12 -8 -13 -6 0 -21 -10 -34 -22 -13 -12 -29 -19 -35 -16 -6 3 -8 3 -4 -2
8 -8 -1 -17 -74 -77 -23 -18 -57 -48 -77 -65 -20 -18 -42 -33 -48 -33 -7 0
-13 -7 -13 -16 0 -10 -6 -14 -15 -10 -8 3 -14 0 -12 -7 1 -7 -4 -11 -10 -10
-7 2 -12 0 -10 -5 1 -4 -8 -18 -20 -32 -13 -13 -23 -18 -23 -11 0 7 -5 9 -12
5 -8 -5 -9 -2 -5 10 4 11 2 16 -7 14 -7 -2 -43 24 -80 57 -100 90 -119 106
-175 150 -28 22 -51 43 -51 47 0 5 -6 8 -13 8 -8 0 -19 10 -25 23 -6 12 -11
16 -11 8 -1 -10 -6 -9 -18 5 -10 10 -54 46 -98 79 -44 32 -88 67 -97 76 -10
10 -26 20 -38 24 -11 3 -20 10 -20 14 0 4 -12 13 -26 19 -15 7 -22 17 -18 24
4 7 3 8 -4 4 -14 -9 -64 23 -56 35 3 5 1 8 -4 7 -12 -4 -91 44 -92 55 0 4 -5
7 -10 7 -6 0 -34 15 -63 33 -28 19 -65 42 -81 52 -23 14 -26 19 -15 27 10 7 8
8 -7 3 -13 -3 -28 0 -38 10 -8 9 -31 22 -51 30 -19 9 -35 20 -35 25 0 6 -7 10
-15 10 -13 0 -71 34 -101 59 -7 6 -15 7 -18 4 -3 -4 -6 -1 -6 6 0 7 -4 9 -10
6 -5 -3 -10 -1 -10 4 0 6 -6 11 -13 11 -7 0 -22 8 -33 18 -11 9 -26 18 -34 20
-8 2 -18 9 -22 15 -4 7 -8 9 -8 5 0 -4 -18 2 -40 13 -22 12 -38 25 -35 29 3 5
-4 6 -15 3 -11 -3 -20 0 -20 6 0 6 -8 11 -17 11 -10 0 -29 9 -43 20 -14 11
-31 20 -38 20 -7 0 -11 4 -8 9 4 5 -2 7 -12 4 -10 -2 -24 3 -31 11 -8 9 -19
16 -25 16 -17 0 -120 52 -128 64 -4 6 -8 7 -8 3 0 -5 -15 0 -33 11 -19 10 -50
25 -70 31 -22 8 -34 17 -31 23 4 7 2 8 -4 4 -6 -4 -28 1 -49 10 -21 10 -41 16
-45 16 -5 -1 -8 2 -8 8 0 6 -3 9 -7 8 -14 -4 -103 34 -103 44 0 5 -4 7 -9 4
-12 -8 -173 59 -164 68 4 4 -1 4 -11 0 -13 -5 -17 -4 -12 4 5 8 2 10 -9 6 -9
-4 -26 -2 -38 4 -21 10 -51 21 -72 28 -41 13 -202 71 -210 76 -6 3 -34 11 -62
19 -29 7 -53 17 -53 22 0 5 -6 7 -12 4 -7 -2 -29 2 -48 10 -19 8 -43 17 -52
19 -10 2 -28 7 -40 10 -13 3 -29 6 -35 6 -7 1 -13 4 -13 7 0 4 -12 8 -27 9
-15 1 -29 6 -32 10 -3 4 -15 9 -26 10 -22 2 -59 9 -62 12 -2 2 -7 4 -13 5 -5
1 -13 4 -17 5 -5 2 -12 4 -18 5 -5 1 -17 5 -25 8 -8 3 -28 8 -45 11 -48 10
-54 12 -61 18 -3 4 -13 4 -22 1 -8 -4 -13 -2 -10 3 4 5 -5 10 -18 10 -13 1
-32 5 -42 9 -9 4 -35 9 -56 11 -22 2 -44 8 -50 12 -6 4 -24 9 -41 11 -16 2
-32 6 -35 10 -5 6 -36 11 -72 12 -10 0 -18 4 -18 9 0 5 -7 6 -17 3 -9 -4 -14
-2 -11 3 4 5 -10 10 -30 10 -63 3 -87 8 -100 24 -8 8 -11 9 -7 3 8 -16 1 -16
-50 -1 -22 6 -52 11 -67 11 -16 0 -28 4 -28 10 0 5 -9 7 -20 4 -11 -3 -20 -2
-20 3 0 4 -12 5 -26 2 -16 -3 -24 -1 -21 4 3 6 -9 10 -26 10 -29 1 -71 7 -147
21 -14 3 -35 6 -47 6 -13 1 -23 6 -23 10 0 5 -5 5 -10 2 -6 -4 -17 -1 -25 5
-12 10 -15 10 -15 0 0 -9 -7 -7 -22 6 -12 10 -18 13 -13 5 6 -11 2 -12 -21 -6
-16 4 -49 9 -74 12 -25 3 -50 9 -56 14 -7 6 -16 4 -23 -5z m1341 -1561 c64
-12 107 -28 101 -39 -4 -6 1 -5 10 3 9 7 17 9 17 4 0 -5 12 -10 27 -11 15 -1
29 -5 32 -10 3 -4 13 -9 21 -11 8 -2 20 -4 25 -6 6 -1 21 -7 35 -12 14 -6 28
-9 33 -6 4 2 7 -1 7 -8 0 -7 3 -10 6 -6 4 3 19 0 35 -9 16 -8 30 -14 31 -13 2
0 16 -4 31 -10 16 -6 35 -11 43 -11 8 0 14 -4 14 -8 0 -4 17 -14 38 -21 20 -7
57 -22 82 -34 25 -11 48 -20 53 -19 4 1 7 -3 7 -9 0 -5 5 -7 10 -4 6 3 13 -1
16 -9 3 -9 10 -13 15 -10 9 5 71 -25 77 -38 2 -5 12 -8 23 -8 10 0 19 -4 19
-10 0 -5 6 -9 13 -7 6 1 11 -4 9 -11 -1 -8 2 -11 7 -8 11 7 151 -64 151 -76 0
-5 4 -7 9 -3 5 3 16 -1 24 -9 8 -8 32 -23 53 -33 21 -11 38 -24 37 -31 -2 -6
3 -9 11 -6 7 3 20 -1 27 -8 8 -7 26 -19 41 -27 15 -8 24 -19 21 -25 -3 -6 -3
-8 2 -4 11 10 67 -21 60 -32 -3 -6 0 -7 8 -5 7 3 24 -3 37 -15 13 -11 26 -20
30 -20 3 0 15 -8 26 -17 10 -10 39 -31 64 -48 25 -16 47 -32 50 -35 3 -3 21
-17 40 -30 47 -33 60 -46 52 -54 -3 -4 1 -4 11 0 11 4 19 0 23 -10 3 -9 12
-16 19 -16 7 0 15 -3 17 -8 2 -4 31 -29 65 -56 36 -28 60 -53 56 -60 -3 -6 -3
-8 2 -4 11 10 47 -11 40 -23 -4 -5 -1 -8 7 -7 7 2 12 -3 10 -10 -1 -8 2 -11 7
-8 8 5 60 -35 113 -86 10 -10 20 -18 22 -18 2 0 24 -19 48 -42 24 -24 58 -54
76 -68 17 -14 32 -31 32 -39 0 -8 3 -12 6 -9 3 3 19 -6 35 -21 21 -20 28 -33
23 -47 -5 -15 -4 -16 5 -4 9 12 22 3 78 -54 63 -64 66 -69 48 -82 -10 -8 -16
-14 -12 -14 4 0 -1 -10 -13 -22 -11 -12 -20 -26 -20 -31 0 -5 -10 -18 -22 -28
-11 -11 -18 -19 -14 -19 4 0 -4 -14 -17 -30 -14 -17 -36 -48 -48 -70 -13 -22
-26 -40 -30 -40 -3 0 -12 -13 -19 -30 -7 -16 -17 -27 -23 -23 -5 3 -7 1 -3 -5
3 -6 -1 -17 -9 -25 -8 -9 -15 -18 -15 -21 0 -6 -63 -110 -71 -116 -4 -3 -9
-15 -13 -27 -4 -13 -12 -23 -17 -23 -5 0 -9 -7 -9 -15 0 -8 -5 -15 -10 -15 -6
0 -9 -3 -8 -7 5 -15 -45 -92 -55 -86 -6 3 -7 1 -3 -5 8 -13 -24 -83 -36 -76
-4 3 -5 -2 -2 -10 3 -9 1 -16 -6 -16 -6 0 -9 -4 -5 -9 3 -6 -2 -14 -11 -19 -9
-5 -15 -11 -13 -13 6 -10 -35 -87 -44 -82 -6 3 -7 1 -4 -4 9 -14 -27 -86 -38
-76 -4 4 -5 3 -1 -4 9 -16 -14 -64 -27 -56 -6 3 -7 1 -3 -5 7 -12 -41 -124
-56 -130 -4 -2 -6 -7 -3 -12 2 -4 -4 -25 -14 -46 -11 -21 -17 -42 -14 -46 2
-5 -1 -8 -8 -8 -7 0 -9 -3 -6 -7 4 -3 -1 -12 -11 -20 -9 -8 -11 -12 -5 -8 9 4
11 1 7 -9 -3 -9 -11 -13 -17 -9 -5 3 -7 2 -4 -4 8 -13 -37 -135 -47 -126 -4 4
-4 0 0 -10 3 -9 1 -23 -5 -30 -6 -8 -12 -23 -14 -35 -2 -12 -6 -25 -10 -28 -4
-4 -7 -16 -7 -26 0 -12 -4 -16 -12 -12 -6 4 -8 3 -4 -4 3 -6 2 -21 -3 -34 -5
-12 -10 -27 -11 -33 -1 -5 -7 -21 -12 -35 -5 -14 -12 -36 -15 -50 -2 -13 -9
-27 -14 -31 -6 -3 -10 -9 -9 -13 2 -11 -23 -120 -30 -131 -4 -5 -13 -35 -19
-65 -7 -30 -15 -62 -18 -70 -4 -8 -5 -19 -4 -24 1 -4 -3 -14 -9 -20 -5 -7 -7
-16 -4 -19 3 -3 2 -11 -2 -18 -4 -7 -9 -25 -10 -38 -2 -14 -8 -27 -15 -30 -8
-2 -7 -6 2 -12 11 -6 11 -11 2 -20 -6 -6 -9 -18 -6 -27 4 -9 2 -13 -4 -9 -7 5
-9 0 -6 -14 4 -12 0 -25 -8 -30 -12 -7 -12 -9 0 -9 9 0 10 -4 4 -12 -5 -7 -10
-26 -12 -43 -2 -16 -8 -33 -15 -37 -8 -6 -8 -8 1 -8 8 0 9 -9 3 -29 -4 -16 -6
-32 -2 -35 3 -3 -1 -6 -9 -6 -11 0 -11 -2 1 -10 8 -5 10 -10 4 -10 -7 0 -12
-12 -13 -27 0 -16 0 -38 -1 -51 0 -13 -3 -21 -8 -19 -4 3 -7 -16 -8 -41 -1
-93 -8 -141 -19 -134 -5 3 -4 -1 2 -10 7 -8 10 -18 6 -22 -4 -3 -7 -24 -8 -46
-1 -22 -4 -43 -8 -46 -4 -4 -2 -13 4 -21 6 -7 7 -13 2 -13 -10 0 -15 -647 -5
-664 3 -5 6 -23 7 -40 0 -17 4 -37 8 -43 4 -6 3 -14 -3 -18 -6 -4 -8 -10 -5
-14 2 -5 7 -28 9 -52 3 -24 7 -53 10 -65 2 -12 7 -45 11 -74 4 -29 8 -61 10
-71 3 -14 -2 -19 -18 -18 -12 0 -31 -2 -42 -4 -11 -2 -24 -2 -30 2 -17 10 -35
10 -41 0 -3 -6 -11 -5 -20 2 -11 9 -14 8 -14 -2 0 -11 -2 -11 -10 1 -7 11 -10
11 -10 2 0 -8 -5 -10 -12 -6 -15 10 -60 10 -75 1 -7 -4 -14 -3 -17 1 -6 9 -53
8 -63 -1 -2 -3 -17 -2 -32 3 -16 4 -34 4 -42 -1 -8 -4 -19 -3 -26 3 -10 8 -13
7 -13 -3 0 -9 -3 -10 -11 -2 -6 6 -25 7 -49 3 -22 -4 -42 -5 -45 -2 -10 10
-35 10 -41 1 -3 -6 -11 -5 -20 2 -11 9 -14 8 -14 -2 0 -11 -2 -11 -10 1 -7 11
-10 11 -10 2 0 -8 -5 -10 -12 -6 -18 11 -48 12 -54 2 -3 -5 -12 -4 -20 3 -11
9 -14 8 -14 -2 0 -12 -2 -12 -9 0 -6 9 -11 10 -15 3 -4 -6 -12 -9 -19 -7 -26
10 -78 12 -83 3 -3 -5 -12 -4 -20 3 -11 9 -14 8 -14 -2 0 -11 -2 -11 -10 1 -5
8 -10 11 -10 5 0 -6 -23 -9 -52 -8 -29 1 -53 2 -53 3 0 7 -36 6 -41 -1 -3 -6
-11 -5 -20 2 -11 9 -14 8 -14 -2 0 -11 -2 -11 -10 1 -7 11 -10 11 -10 2 0 -8
-5 -10 -12 -6 -15 10 -60 10 -75 1 -7 -4 -14 -3 -17 2 -3 5 -16 7 -28 3 -16
-4 -19 -2 -12 9 11 18 14 39 5 39 -8 0 -7 47 1 55 3 3 2 22 -2 41 -5 23 -4 34
4 35 7 0 6 3 -2 6 -10 4 -10 8 -1 19 9 11 9 14 0 14 -7 0 -9 5 -5 12 11 17 11
58 1 58 -5 0 -4 7 3 15 9 11 9 15 1 15 -9 0 -9 5 -1 20 8 14 8 20 0 20 -7 0
-8 6 -1 18 6 10 6 24 1 32 -5 8 -6 19 -2 25 11 16 11 35 1 35 -6 0 -5 8 1 20
8 14 8 20 0 20 -8 0 -8 6 0 20 7 13 7 20 1 20 -7 0 -7 9 -1 25 6 16 6 26 -1
31 -8 4 -7 9 2 15 12 7 12 9 0 9 -11 0 -11 3 -1 15 9 11 9 15 1 15 -7 0 -9 5
-4 13 11 18 13 37 3 37 -5 0 -5 14 0 30 6 20 5 30 -2 30 -6 0 -6 6 2 15 9 11
9 15 1 15 -9 0 -9 5 -1 20 8 14 8 20 0 20 -7 0 -8 6 -1 18 6 10 6 24 1 32 -5
8 -6 19 -2 25 11 16 11 35 1 35 -6 0 -5 8 1 20 8 14 8 20 0 20 -8 0 -8 6 0 20
7 13 7 20 1 20 -7 0 -7 9 -1 25 6 16 6 26 -1 31 -8 4 -7 9 2 15 12 7 12 9 0 9
-11 0 -11 3 -1 15 9 11 9 15 1 15 -7 0 -9 5 -4 13 11 18 13 37 3 37 -5 0 -5
14 0 30 6 20 5 30 -2 30 -6 0 -6 6 2 15 9 11 9 15 1 15 -9 0 -9 5 -1 20 8 14
8 20 0 20 -7 0 -8 6 -1 18 6 10 6 24 1 32 -5 8 -6 19 -2 25 11 16 11 35 1 35
-6 0 -5 8 1 20 8 14 8 20 0 20 -8 0 -8 6 0 20 6 12 7 20 1 20 -6 0 -6 11 -1
30 6 20 5 30 -2 30 -6 0 -6 6 2 15 9 11 9 15 1 15 -9 0 -9 5 -1 20 8 14 8 20
0 20 -7 0 -8 6 -1 18 6 10 6 24 1 32 -5 8 -6 19 -2 25 11 16 11 35 1 35 -6 0
-5 8 1 20 8 14 8 20 0 20 -8 0 -8 6 0 20 7 13 7 20 1 20 -7 0 -7 9 -1 25 6 16
6 26 -1 31 -8 4 -7 9 2 15 12 7 12 9 0 9 -11 0 -11 3 -1 15 9 11 9 15 1 15 -7
0 -9 5 -4 13 11 18 13 37 3 37 -5 0 -5 14 0 30 6 20 5 30 -2 30 -6 0 -6 6 2
15 9 11 9 15 1 15 -9 0 -9 5 -1 20 8 14 8 20 0 20 -7 0 -8 6 -1 18 6 10 6 24
1 32 -5 8 -6 19 -2 25 11 16 11 35 1 35 -6 0 -5 8 1 20 8 14 8 20 0 20 -8 0
-8 6 0 20 7 13 7 20 1 20 -7 0 -7 9 -1 25 6 16 6 26 -1 31 -8 4 -7 9 2 15 12
7 12 9 0 9 -11 0 -11 3 -1 15 9 11 9 15 1 15 -7 0 -9 5 -4 13 11 18 13 37 3
37 -5 0 -5 14 0 30 6 20 5 30 -2 30 -6 0 -6 6 2 15 9 11 9 15 1 15 -9 0 -9 5
-1 20 8 14 8 20 0 20 -7 0 -8 6 -1 18 6 10 6 24 1 32 -5 8 -6 19 -2 25 11 16
11 35 1 35 -6 0 -5 8 1 20 8 14 8 20 0 20 -8 0 -8 6 0 20 7 13 7 20 1 20 -6 0
-7 9 -2 22 4 12 5 37 1 55 -5 22 -4 33 4 34 7 0 6 3 -2 6 -10 4 -10 8 -1 19 9
11 9 14 0 14 -7 0 -9 5 -4 13 10 15 12 57 3 57 -10 0 -6 44 5 52 6 5 5 8 -4 8
-11 0 -11 3 -1 15 9 11 9 15 1 15 -7 0 -9 5 -4 13 9 15 10 33 2 75 -5 21 -3
32 5 33 7 0 6 3 -2 6 -10 4 -10 8 -1 19 9 11 9 14 0 14 -7 0 -9 5 -4 13 10 15
12 57 3 57 -10 0 -6 44 5 52 6 5 5 8 -4 8 -11 0 -11 3 -1 15 9 11 9 15 1 15
-7 0 -9 5 -4 13 9 15 10 33 2 75 -5 21 -3 32 5 33 7 0 6 3 -2 6 -10 4 -10 8
-1 19 9 11 9 14 0 14 -7 0 -9 5 -4 13 10 15 12 57 3 57 -10 0 -6 44 5 52 6 5
5 8 -4 8 -11 0 -11 3 -1 15 9 11 9 15 1 15 -7 0 -9 5 -4 13 9 15 10 33 2 75
-5 21 -3 32 5 33 7 0 6 3 -2 6 -10 4 -10 8 -1 19 9 11 9 14 0 14 -7 0 -9 5 -4
13 10 15 12 57 3 57 -10 0 -6 44 5 52 6 5 5 8 -4 8 -11 0 -11 3 -1 15 9 11 9
15 1 15 -7 0 -9 5 -5 12 12 18 12 48 1 55 -5 3 -3 9 4 14 12 7 12 9 0 9 -11 0
-11 3 -1 15 9 11 9 15 1 15 -7 0 -9 5 -4 13 11 18 13 37 3 37 -5 0 -5 14 0 30
6 20 5 30 -2 30 -6 0 -6 6 2 15 9 11 9 15 1 15 -9 0 -9 5 -1 20 8 14 8 20 0
20 -7 0 -8 6 -1 18 6 10 6 24 1 32 -5 8 -6 19 -2 25 11 16 11 35 1 35 -6 0 -5
8 1 20 8 14 8 20 0 20 -8 0 -8 6 0 20 7 13 7 20 1 20 -7 0 -7 9 -1 25 6 16 6
26 -1 31 -8 4 -7 9 2 15 12 7 12 9 0 9 -11 0 -11 3 -1 15 9 11 9 15 1 15 -7 0
-9 5 -4 13 11 18 13 37 3 37 -5 0 -5 14 0 30 6 20 5 30 -2 30 -6 0 -6 6 2 15
9 11 9 15 1 15 -9 0 -9 5 -1 20 8 14 8 20 0 20 -7 0 -8 6 -1 18 6 10 6 24 1
32 -5 8 -6 19 -2 25 11 16 11 35 1 35 -6 0 -5 8 1 20 8 14 8 20 0 20 -8 0 -8
6 0 20 7 13 7 20 1 20 -7 0 -7 9 -1 25 6 16 6 26 -1 31 -8 4 -7 9 2 15 12 7
12 9 0 9 -11 0 -11 3 -1 15 9 11 9 15 1 15 -7 0 -9 5 -4 13 11 18 13 37 3 37
-5 0 -5 14 0 30 6 20 5 30 -2 30 -6 0 -6 6 2 15 9 11 9 15 1 15 -9 0 -9 5 -1
20 8 14 8 20 0 20 -7 0 -8 6 -1 19 6 10 8 20 6 23 -7 7 -12 98 -5 98 4 0 5 12
2 26 -3 19 -1 25 7 20 6 -4 21 -9 33 -11z"/>
</g>
</svg>
